<svg width="140" height="46" fill="none" xmlns="http://www.w3.org/2000/svg"><path d="M116.549.136c-3.319.556-6.301 2.73-7.767 5.644-.825 1.651-1.01 2.544-1.112 5.56l-.101 2.864-1.971.084c-1.634.067-2.038.135-2.443.438-.741.539-1.095 1.364-.994 2.291.186 1.702.927 2.173 3.555 2.308l1.853.101.085 11.793c.067 8.98.134 11.877.286 12.164.404.69 1.196 1.112 2.173 1.128.977 0 1.516-.27 2.157-1.145.353-.455.353-.64.404-12.248l.051-11.776h14.286l.05 8.71c.068 9.62.068 9.518 1.196 11.81.674 1.364 2.595 3.436 3.926 4.245 1.651.994 2.931 1.331 4.987 1.348 1.684 0 1.819-.034 2.308-.438.505-.421.522-.472.522-1.87 0-1.365-.017-1.449-.506-1.904-.505-.472-1.128-.674-2.122-.674-1.399 0-3.471-1.28-4.364-2.695-.893-1.416-.926-1.786-.926-10.48v-8.052h2.409c2.83 0 3.454-.135 4.144-.943.455-.506.522-.708.522-1.55 0-.674-.101-1.13-.336-1.517-.54-.893-1.146-1.044-4.128-1.044h-2.611V8.813c0-4.296-.051-5.61-.236-6.048-.725-1.719-3.42-1.854-4.414-.203-.286.472-.32.994-.371 6.116l-.05 5.61h-14.303v-2.41c0-2.29.017-2.442.488-3.436.944-1.988 2.612-3.15 4.936-3.403 2.039-.236 2.78-.994 2.629-2.763-.152-1.92-1.5-2.594-4.212-2.14ZM39.17 18.937c-2.661.59-5.036 1.955-6.94 3.993-6.554 7.009-3.706 18.734 5.307 21.901 1.347.472 1.684.522 4.11.59 2.477.067 2.763.034 4.212-.37 2.847-.826 5.694-2.831 5.93-4.179.169-.943-.151-1.87-.825-2.476-.523-.455-.725-.523-1.567-.523-.994 0-1.095.051-2.645 1.163-3.285 2.342-7.598 1.954-10.53-.994-2.628-2.628-3.268-6.217-1.667-9.536 1.348-2.847 4.397-4.784 7.48-4.784 1.988 0 3.352.539 5.812 2.257.54.388.893.506 1.5.506 1.617 0 2.627-1.095 2.493-2.763-.068-.876-.118-.96-1.112-1.87-1.213-1.129-3.134-2.173-4.903-2.679-1.701-.488-4.986-.606-6.654-.236Zm26.11-.017a21.13 21.13 0 0 0-1.768.506c-.876.303-2.797 1.365-2.965 1.617-.05.101-.32-.084-.624-.438-1.482-1.684-4.144-.808-4.414 1.466-.05.489-.084 5.374-.05 10.833.05 9.265.067 9.99.354 10.411.471.724 1.263 1.129 2.19 1.129.994 0 1.718-.354 2.14-1.062.32-.505.336-.892.336-6.637 0-3.79.068-6.436.186-6.992a7.747 7.747 0 0 1 2.19-3.925c2.089-2.005 4.734-2.595 7.463-1.702.724.236 1.5.438 1.735.438.59 0 1.432-.404 1.904-.926.37-.388.421-.607.421-1.6 0-1.045-.05-1.214-.489-1.669-1.33-1.381-5.626-2.105-8.608-1.448Zm20.472 0c-7.345 1.483-11.995 8.593-10.462 16.005 1.011 4.92 4.818 8.98 9.552 10.193 1.803.472 5.392.472 7.177.017 1.365-.354 2.932-1.078 4.161-1.92.59-.405.775-.456.826-.27.05.135.37.522.707.859.59.59.708.64 1.601.64 1.179 0 1.937-.421 2.359-1.28.235-.523.269-1.28.219-7.026-.068-6.89-.085-7.041-1.028-9.366-1.23-3.067-4.515-6.183-7.632-7.278-2.291-.809-5.206-1.028-7.48-.573Zm5.088 5.14c4.28 1.313 6.907 5.896 5.778 10.09-.96 3.64-4.464 6.42-8.086 6.42-4.549 0-8.508-3.926-8.508-8.407.017-5.577 5.56-9.738 10.816-8.104ZM1.432 19.932c-.37.135-.842.455-1.045.708L0 21.11v7.16c0 8.036.017 8.188 1.18 10.53 1.532 3.116 4.531 5.56 7.833 6.402 1.348.337 5.071.337 6.402 0 1.146-.304 2.797-1.028 3.69-1.651l.606-.405.657.64c.607.607.724.657 1.617.657 1.163 0 1.938-.42 2.342-1.246.236-.506.27-1.786.27-11.086 0-9.653-.017-10.546-.304-11.085-.387-.758-1.23-1.247-2.207-1.247-1.027 0-1.785.472-2.206 1.331-.32.657-.337 1.062-.337 6.958 0 5.914-.017 6.335-.354 7.312-.708 2.14-1.988 3.538-4.128 4.548-1.078.523-1.297.556-2.864.556-1.617 0-1.735-.033-2.982-.64-1.684-.825-2.78-1.92-3.605-3.605l-.64-1.297-.084-6.823c-.085-6.368-.101-6.874-.405-7.312-.606-.91-1.937-1.28-3.049-.876Z" fill="#F8F6FA"/></svg>