<svg width="140" height="43" fill="none" xmlns="http://www.w3.org/2000/svg"><path d="M55.931 1.08c-1.547 1.496-1.702 2.683-.515 4.333.98 1.445 3.816 1.548 5.003.207 1.031-1.135 1.135-3.869.206-4.643-.31-.309-1.238-.67-2.012-.876-1.083-.258-1.702-.052-2.682.98ZM.174 1.029C.02 1.39-.032 7.94.02 15.574l.155 13.927 2.476.155 2.424.154V.358h-2.32c-1.445 0-2.477.258-2.58.67ZM119.426.72c-.207.154-.362 6.808-.362 14.7v14.339h5.055l.155-6.757c.206-6.654.206-6.757 1.651-7.995 1.805-1.547 4.848-1.65 6.602-.258 1.186.929 1.238 1.341 1.392 7.995l.207 7.015h5.158l-.207-7.634c-.103-6.447-.309-7.84-1.186-9.336-2.682-4.59-7.221-5.364-13.256-2.218-.258.104-.413-2.166-.413-5.003V.358h-2.218c-1.237 0-2.424.155-2.578.362ZM65.627 3.711c-.155.413-.206 1.806-.103 3.095.155 2.218.103 2.321-1.238 2.321s-1.444.155-1.444 2.321c0 2.115.103 2.321 1.29 2.321h1.289v15.99h5.158v-15.99h1.599c1.496 0 1.547-.051 1.392-2.218-.154-1.96-.31-2.166-1.547-2.32-1.393-.155-1.444-.259-1.444-3.25V2.938h-2.321c-1.6 0-2.425.258-2.63.773Zm73.398 4.952c.361.36.774.515.929.36.154-.154-.104-.463-.619-.618-.723-.31-.774-.258-.31.258Zm-124.564.516c-2.579.774-5.983 4.436-6.808 7.324-1.341 4.952 1.29 10.677 5.88 12.792 4.797 2.166 11.347.412 14.133-3.817 1.186-1.805 1.392-2.63 1.392-6.035 0-3.507-.154-4.178-1.496-6.086-2.682-3.92-8.046-5.622-13.1-4.178Zm6.757 5.158c3.61 1.65 3.92 7.788.516 10.006-1.65 1.083-5.003 1.083-6.654 0-4.642-2.991-2.527-10.574 2.94-10.574 1.083 0 2.528.258 3.198.568Zm16.609-4.746c-2.424 1.135-5.106 3.817-5.88 5.88-1.083 2.786-.67 6.603.98 9.44 3.662 6.447 13.204 7.22 17.898 1.547 2.63-3.198 3.301-6.809 2.012-10.522-.568-1.6-.62-2.218-.155-2.58.567-.515.825-3.455.31-3.92-.104-.103-3.095-.309-6.654-.515-5.674-.258-6.706-.206-8.511.67Zm8.15 5.261c1.908 1.445 2.785 4.54 1.908 6.654-.98 2.373-2.837 3.61-5.52 3.61-1.96 0-2.578-.257-4.074-1.753-1.444-1.444-1.754-2.166-1.754-3.92s.31-2.476 1.754-3.92c1.496-1.496 2.115-1.754 4.075-1.754 1.547 0 2.734.361 3.61 1.083Zm34.404-5.106c-4.745 2.425-6.963 7.428-5.673 12.844 1.856 7.582 12.07 10.264 18.775 4.9.98-.826.98-.877-.671-2.58l-1.702-1.753-1.805 1.238c-2.734 1.805-5.932 1.702-7.944-.258-.825-.825-1.495-1.754-1.495-2.063 0-.361 2.63-.568 8.046-.568h8.098l-.361-2.63C94.566 10.675 87.24 6.29 80.38 9.746Zm8.201 4.849c2.786 2.32 2.218 2.785-3.558 2.785-5.777 0-6.345-.464-3.56-2.785 2.167-1.806 4.952-1.806 7.118 0Z" fill="#F8F6FA"/><path d="M103.849 9.591c-10.625 4.9-7.118 20.683 4.642 20.683 2.786 0 6.19-1.29 7.583-2.888.825-.928.773-1.083-.671-2.682l-1.547-1.702-1.806 1.083c-4.59 2.888-9.903-.258-9.284-5.416.516-4.23 5.88-6.499 9.233-3.869 1.702 1.342 1.96 1.29 3.714-.515 1.444-1.496 1.444-1.548.464-2.63-2.528-2.89-8.408-3.87-12.328-2.064Zm-48.226 9.852V29.81l2.476-.154 2.424-.155V9.385L58.1 9.23l-2.476-.155v10.368ZM31.38 32.441c.052 2.012 1.858 5.313 3.87 6.963 6.55 5.416 16.195 1.96 18.052-6.447l.361-1.65h-2.579c-2.476 0-2.527.05-3.3 2.01-1.96 5.004-9.852 4.643-10.987-.515-.31-1.392-.516-1.496-2.889-1.496-2.27 0-2.527.104-2.527 1.135Z" fill="#F8F6FA"/></svg>