<svg width="140" height="34" fill="none" xmlns="http://www.w3.org/2000/svg"><path d="M136.163 1.048c-1.666 1.799-1.865 2.399-.966 3.231.4.367.9.7 1.1.7.199 0 .533.233.766.5.533.633.733.466 1.965-1.366 1.266-1.832 1.266-2.266.167-3.298-1.199-1.1-1.799-1.033-3.032.233Zm-114.37.166c-.267.1-.767.4-1.066.7-.567.466-.6 1.466-.6 11.86 0 12.726.033 12.86 2.132 12.86 1.932 0 2.132-.533 2.265-6.73.1-6.23.3-6.763 2.732-8.029 1.533-.8 2.965-.5 3.998.866.633.867.7 1.533.866 7.096.167 6.73.2 6.797 2.233 6.797 1.832 0 2.098-1 2.098-7.896 0-5.597-.066-6.03-.833-7.696-.666-1.466-1.066-1.832-2.332-2.398-2.132-.9-4.164-.867-6.163.166-.9.433-1.699.966-1.832 1.166-.6 1-.833-.033-.833-3.831V2.014l-1-.533c-.533-.267-.999-.5-1.066-.466-.066 0-.333.1-.6.2ZM133.398 8.51v2.2l-.999-.834c-1.599-1.332-3.731-2.032-5.797-1.799-4.397.433-6.796 3.498-6.829 8.762-.067 5.93 2.898 9.795 7.529 9.795 1.732 0 2.232-.167 3.964-1.3l1.966-1.299.233.833c.367 1.3.933 1.766 2.132 1.766 1.999 0 2.132-.666 2.132-11.16V6.311h-4.331V8.51Zm-2.665 3.532c1.599 1.1 2.332 2.698 2.332 5.164 0 2.332-.266 3.231-1.366 4.497-1.699 1.932-4.131 2-5.863.167-1.366-1.433-1.899-3.198-1.633-5.497.267-2.232 1.167-3.798 2.632-4.531 1.466-.733 2.599-.666 3.898.2ZM5.402 8.577C1.971 9.81.038 13.007.005 17.472c-.033 2.432.067 2.832 1.133 4.83 1.066 1.933 1.432 2.266 3.331 3.265 2 1.033 2.366 1.1 4.831 1 3.165-.133 5.364-1.1 6.863-2.965 1.433-1.832 1.566-3.032.466-3.931-1.199-.9-1.732-.9-2.598.166-2.865 3.365-2.732 3.299-4.83 3.299-1.733 0-2.066-.1-3-1.066-1.732-1.7-2.131-5.964-.832-8.496.466-1 2.632-2.265 3.764-2.265 1.1 0 2.5.866 4.132 2.565 1.465 1.566 1.532 1.6 2.398 1.1 1.966-1.1 1.9-2.4-.166-4.565-2.2-2.299-6.563-3.065-10.095-1.832ZM44.78 8.51c-4.298 1.5-6.23 5.297-5.53 10.928.532 4.23 4.264 7.196 9.028 7.196 1.932 0 2.698-.167 4.031-.866 2.166-1.133 2.699-1.633 3.831-3.632.866-1.499.966-1.965.966-4.797 0-2.865-.066-3.265-1-4.864-.566-.966-1.498-2.132-2.098-2.599-2.399-1.832-6.23-2.398-9.228-1.366Zm5.73 3.632c.966.633 1.366 1.232 1.766 2.565.6 2.066.633 2.799.133 4.864-.433 1.766-1.033 2.565-2.365 3.265-2.266 1.166-4.931.033-5.964-2.532-2.232-5.564 2.132-11.094 6.43-8.162Zm9.929-3.265c-.667.866-.7 1.133-.6 12.127.1 10.494.133 11.26.733 11.927.833.932 1.899.899 2.832-.1.7-.767.766-1.1.733-4.631-.034-2.299.1-3.931.3-4.065.166-.1.333-.066.333.1 0 .134.633.7 1.432 1.233 1.833 1.233 4.864 1.532 6.73.633 1.666-.8 3.764-2.998 4.198-4.464.6-2.066.733-5.23.3-7.363-1-4.63-5.298-7.263-9.562-5.83-.933.3-1.999.933-2.432 1.366-.833.9-1.333.833-1.333-.167 0-.766-1.199-1.666-2.198-1.666-.434 0-1.066.4-1.466.9Zm10.294 2.965c1.333.8 2.399 2.665 2.599 4.63.433 4.232-2.599 7.697-5.73 6.497-1.1-.4-2.4-1.732-2.866-2.931-.5-1.333-.333-4.798.3-6.064 1.133-2.265 3.765-3.265 5.697-2.132ZM81.295 8.51c-.467.434-.533 2-.533 11.894 0 6.263.1 11.727.2 12.16.233.8 1.365 1.233 2.398.933 1.066-.367 1.4-1.7 1.4-5.93v-4.065l.932.867c2 1.865 2.932 2.265 4.964 2.265 1.633 0 2.266-.2 3.765-1.1 1.566-.899 1.999-1.399 2.965-3.298 1-1.998 1.133-2.565 1.133-4.864 0-2.132-.167-2.998-.933-4.63-1.133-2.532-2.166-3.565-4.431-4.265-2.832-.933-4.997-.433-7.296 1.633l-1.1 1v-.9c0-1.8-2.265-2.899-3.464-1.7Zm10.527 3.632c1.566 1.066 2.066 2.732 1.866 6.097-.167 2.198-.267 2.531-1.266 3.564-1.433 1.5-2.898 1.8-4.564.933-3.432-1.732-3.732-8.395-.467-10.627 1.533-1.033 2.899-1.033 4.431.033Zm14.126-3.632c-1.899.7-3.398 1.933-4.431 3.732-.866 1.432-.933 1.832-.933 5.064 0 3.698.133 4.164 1.899 6.363 1.632 2.032 3.331 2.765 6.763 2.898 2.765.1 3.165.034 4.831-.833 2.631-1.366 4.097-3.864 2.931-5.03-.666-.666-1.299-.467-3.165 1.066-3.165 2.632-6.563 2.432-7.995-.467-.433-.8-.766-1.832-.766-2.232 0-.766 0-.766 5.13-.766 4.964 0 6.73-.266 7.263-1.1.866-1.365-.167-5.03-1.966-6.929-1.999-2.099-6.43-2.932-9.561-1.766Zm4.897 2.832c1.533.833 2.565 2.432 2.565 3.998 0 .6-.266.633-4.164.633-4.664 0-4.698 0-3.665-2.465.866-2.066 3.432-3.132 5.264-2.166Z" fill="#F8F6FA"/></svg>