<svg width="140" height="39" fill="none" xmlns="http://www.w3.org/2000/svg"><path d="M0 4.067v3.195h7.552V.872H0v3.195Zm15.102 15.684v18.88h7.551V.87h-7.551v18.88Zm14.64-3.95c-.058 8.249.058 16.73.232 18.88l.349 3.95h9.236l-.871-1.627c-.64-1.22-.872-5.344-1.046-18.705l-.174-17.137-3.834-.174-3.892-.175v14.988ZM85.975 4.067v3.195h7.551V.872h-7.551v3.195ZM63.379 11.27c-1.046.29-2.788 1.336-3.776 2.324-1.627 1.684-1.8 2.15-1.8 5.519 0 3.136.232 4.008 1.335 5.17 1.395 1.51 4.88 2.846 9.12 3.601 4.996.814 6.623 3.718 2.905 5.228-2.672 1.162-7.435.175-9.178-1.8-.755-.872-1.86-1.395-2.847-1.395-1.568 0-1.626.058-1.626 3.137v3.08l2.962 1.277c4.415 1.801 12.722 1.743 15.801-.116 4.24-2.556 5.577-6.797 3.486-11.095-1.046-2.324-4.415-4.009-9.063-4.648-5.75-.871-8.423-2.962-5.576-4.473 2.614-1.336 7.493-.348 7.493 1.51 0 .698.872.872 3.776.872 2.092 0 3.776-.116 3.776-.29 0-.117-.406-1.278-.93-2.556-1.451-3.602-4.53-5.403-9.7-5.635-2.266-.117-5.054.058-6.158.29Zm63.492.174c-4.008 2.44-3.718 2.324-3.718 1.046 0-1.046-.348-1.162-3.776-1.162h-3.775v27.303h7.551v-9.237c0-9.178 0-9.178 1.511-10.746 2.556-2.498 5.983-1.801 7.145 1.452.349 1.045.639 5.635.639 10.166v8.365H140V28.465c0-11.444-.523-13.71-3.66-16.033-2.207-1.627-7.552-2.15-9.469-.988ZM0 24.979V38.63h7.552V11.327H0V24.98Zm85.975.001v13.65h10.049l-1.103-1.22c-.988-1.103-1.104-2.38-1.278-12.024-.175-10.166-.117-10.863 1.045-12.431l1.22-1.627h-9.933v13.651Zm-41.709-1.22c.174 8.946.29 10.224 1.278 11.327 1.452 1.569 2.73 1.569 4.299-.116 1.22-1.278 1.278-1.859 1.278-11.328v-9.991h-7.029l.174 10.107Zm57.336-7.378c-.581.697-.813 2.846-.813 8.075 0 6.157.174 7.261 1.104 8.307 1.336 1.51 3.718 1.568 4.763.174 1.046-1.336 1.162-15.8.116-16.846-1.045-1.046-4.24-.872-5.17.29Z" fill="#F8F6FA"/></svg>