<svg width="90" height="113" fill="none" xmlns="http://www.w3.org/2000/svg"><path fill-rule="evenodd" clip-rule="evenodd" d="M44.976 113c24.788 0 44.884-12.17 44.884-27.183S69.764 58.634 44.976 58.634C20.187 58.633.092 70.803.092 85.816S20.187 113 44.976 113Zm0-.406c-24.418 0-44.213-11.989-44.213-26.777 0-14.789 19.794-26.777 44.213-26.777 24.418 0 44.213 11.988 44.213 26.777 0 14.788-19.795 26.777-44.213 26.777ZM81.01 85.817c0 12.22-16.133 22.126-36.034 22.126-19.9 0-36.034-9.906-36.034-22.126S25.075 63.69 44.976 63.69c19.9 0 36.034 9.906 36.034 22.126Zm-71.035 0c0 11.87 15.67 21.492 35 21.492 19.331 0 35.002-9.623 35.002-21.492 0-11.87-15.67-21.492-35.001-21.492-19.33 0-35.001 9.622-35.001 21.492Zm62.184 0c0 9.427-12.17 17.068-27.183 17.068s-27.183-7.642-27.183-17.068c0-9.427 12.17-17.069 27.183-17.069S72.16 76.39 72.16 85.817Zm-52.362 0c0 8.732 11.273 15.81 25.18 15.81 13.905 0 25.178-7.078 25.178-15.81s-11.273-15.81-25.179-15.81c-13.906 0-25.18 7.078-25.18 15.81Zm46.039 0c0 7.332-9.34 13.275-20.862 13.275-11.521 0-20.861-5.943-20.861-13.275 0-7.332 9.34-13.276 20.861-13.276 11.522 0 20.862 5.944 20.862 13.276Zm-39.264 0c0 6.467 8.239 11.71 18.402 11.71s18.402-5.243 18.402-11.71c0-6.468-8.239-11.71-18.402-11.71s-18.402 5.242-18.402 11.71Zm18.405 8.218c7.331 0 13.275-3.68 13.275-8.218 0-4.539-5.944-8.218-13.276-8.218-7.331 0-13.275 3.679-13.275 8.218s5.944 8.218 13.276 8.218Zm0-1.741c-5.779 0-10.463-2.9-10.463-6.477 0-3.577 4.684-6.477 10.462-6.477 5.779 0 10.463 2.9 10.463 6.477 0 3.577-4.684 6.477-10.462 6.477Z" fill="url(#a)" fill-opacity=".12"/><path d="M50.348.186c-1.073.41-2.186 1.483-2.732 2.654-.469 1.015-.508 1.308-.566 4.47-.078 3.865.195 3.435-2.381 3.65-2.03.175-6.13.976-8.588 1.698C22.398 16.659 10.98 26.555 5.085 39.476c-1.97 4.333-3.708 10.345-4.04 14.131-.097 1.093-.058 1.367.332 2.03.8 1.347 2.381 1.835 3.787 1.171.41-.195 1.19-.995 1.99-2.01 6.344-8.14 15.85-13.643 26.584-15.361 2.499-.41 8.998-.43 11.516-.039l1.66.254.097 3.708c.117 4.138.293 4.86 1.58 6.129 1.387 1.386 3.143 1.718 5.193.976 1.054-.39 1.717-.996 10.559-9.818 9.72-9.68 10.423-10.481 11.047-12.59.39-1.307.41-3.903.04-5.113-.723-2.381-.898-2.576-10.814-12.492C54.35.205 54.291.166 52.086.01c-.586-.039-1.367.04-1.738.176Z" fill="url(#b)"/><path d="M84.412 42.35c-.312.196-1.21 1.133-1.97 2.089-1.66 2.088-5.27 5.621-7.281 7.144-5.582 4.216-12.023 6.948-19.128 8.08-2.498.41-8.998.43-11.516.04l-1.659-.255-.117-3.513c-.137-4.255-.39-5.153-1.776-6.48-1.445-1.405-3.397-1.62-5.446-.624-1.112.546-2.323 1.698-10.442 9.817-6.715 6.695-9.369 9.486-9.818 10.267a9.77 9.77 0 0 0-.215 9.193c.293.586 3.436 3.865 9.896 10.364C35.11 98.661 35.382 98.876 37.53 99.11c2.185.214 4.098-1.21 4.84-3.611.312-1.015.39-1.815.39-4.158 0-3.337-.253-2.986 2.343-3.2 1.951-.157 5.875-.938 8.353-1.64 18.172-5.212 31.913-20.65 34.977-39.27.39-2.421.332-3.28-.312-4.139-.8-1.073-2.576-1.425-3.709-.742Z" fill="url(#c)"/><defs><linearGradient id="b" x1="38.348" y1="57.102" x2="38.348" y2="0" gradientUnits="userSpaceOnUse"><stop stop-color="#AD00FF"/><stop offset="1" stop-color="#3D00FF"/></linearGradient><linearGradient id="c" x1="51.339" y1="99.131" x2="51.339" y2="42" gradientUnits="userSpaceOnUse"><stop stop-color="#AD00FF"/><stop offset="1" stop-color="#3D00FF"/></linearGradient><radialGradient id="a" cx="0" cy="0" r="1" gradientUnits="userSpaceOnUse" gradientTransform="matrix(.63218 25.9189 -42.79627 1.04383 44.976 85.817)"><stop stop-color="#4A00FF"/><stop offset=".184" stop-color="#4F00FF" stop-opacity=".63"/><stop offset="1" stop-color="#4B00FF" stop-opacity="0"/></radialGradient></defs></svg>