<svg width="103" height="104" fill="none" xmlns="http://www.w3.org/2000/svg"><path fill-rule="evenodd" clip-rule="evenodd" d="M40.977 103.634c22.63 0 40.976-11.111 40.976-24.817S63.607 54 40.977 54C18.346 54 0 65.11 0 78.817c0 13.706 18.346 24.817 40.977 24.817Zm0-.371C18.684 103.263.612 92.318.612 78.817c0-13.501 18.072-24.446 40.365-24.446 22.292 0 40.364 10.945 40.364 24.446 0 13.5-18.072 24.446-40.364 24.446Zm32.896-24.446c0 11.156-14.728 20.2-32.897 20.2-18.168 0-32.896-9.044-32.896-20.2 0-11.156 14.728-20.2 32.896-20.2 18.169 0 32.897 9.044 32.897 20.2Zm-64.85 0c0 10.836 14.306 19.62 31.953 19.62 17.648 0 31.954-8.784 31.954-19.62S58.624 59.196 40.976 59.196c-17.647 0-31.954 8.785-31.954 19.62Zm56.77 0c0 8.606-11.11 15.583-24.817 15.583-13.706 0-24.817-6.977-24.817-15.583S27.27 63.234 40.976 63.234s24.817 6.977 24.817 15.583Zm-47.804 0c0 7.972 10.292 14.434 22.987 14.434 12.696 0 22.988-6.463 22.988-14.434 0-7.972-10.292-14.434-22.988-14.434-12.695 0-22.987 6.462-22.987 14.434Zm42.032 0c0 6.693-8.527 12.12-19.045 12.12-10.519 0-19.046-5.427-19.046-12.12 0-6.694 8.527-12.12 19.046-12.12 10.518 0 19.045 5.426 19.045 12.12Zm-35.845 0c0 5.904 7.521 10.69 16.8 10.69 9.278 0 16.8-4.786 16.8-10.69 0-5.905-7.522-10.691-16.8-10.691-9.279 0-16.8 4.786-16.8 10.69Zm16.8 7.503c6.694 0 12.12-3.36 12.12-7.503 0-4.144-5.426-7.503-12.12-7.503-6.693 0-12.12 3.36-12.12 7.503 0 4.143 5.427 7.503 12.12 7.503Zm0-1.59c-5.275 0-9.552-2.648-9.552-5.913 0-3.266 4.277-5.913 9.553-5.913 5.275 0 9.552 2.647 9.552 5.913 0 3.266-4.277 5.913-9.553 5.913Z" fill="url(#a)" fill-opacity=".12"/><path d="M43.631.112c-7.098.867-13.309 3.41-19.224 7.867-2.366 1.774-6.21 5.58-8.005 7.907-4.318 5.58-7.63 12.224-9.444 19.007C5.045 42.07 4 49.326 4 55.497c.02 8.124 1.775 13.427 5.679 16.996 2.188 2.011 4.948 3.273 8.399 3.825 2.721.454 3.194.415 4.14-.355 2.07-1.675 5.226-3.47 7.355-4.16.966-.315 2.248-1.577 23.266-22.852a22921.941 22921.941 0 0 0 25.633-25.987l3.41-3.45-1.202-1.775C74.134 8.294 64.709 2.222 53.687.408 51.44.033 45.682-.125 43.631.112Zm8.715 9.09c3.806.828 6.763 3.706 7.75 7.57 1.34 5.245-2.012 10.628-7.493 12.028-2.17.552-4.752.256-6.862-.808-1.38-.71-3.687-3.037-4.338-4.417-1.991-4.14-1.301-8.36 1.873-11.515 2.564-2.563 5.758-3.549 9.07-2.859Zm-22.28 13.624a7.536 7.536 0 0 1 3.53 3.43c.63 1.263.67 1.46.67 3.313 0 1.735-.06 2.13-.513 3.076-2.03 4.279-7.197 5.659-11.12 2.958-1.203-.828-2.17-2.189-2.662-3.727-1.321-4.2 1.084-8.459 5.422-9.563.217-.059 1.124-.059 2.011-.04 1.183.06 1.873.198 2.662.553Zm-4.338 25.04c3.825 1.755 5.54 6.448 3.668 10.076-.493.966-1.814 2.425-2.741 3.017-2.03 1.262-4.93 1.4-7.157.296-6.034-2.958-5.324-11.634 1.123-13.743 1.322-.434 3.747-.257 5.107.355Z" fill="url(#b)"/><path d="M97.105 12.08c-.473.099-45.645 43.595-45.546 43.851.04.079 2.879 2.701 6.349 5.797 5.264 4.752 6.31 5.62 6.526 5.402.158-.157 8.892-11.495 19.421-25.218 17.627-22.95 19.146-25.001 19.047-25.573-.217-1.479-2.307-3.569-4.12-4.101-.553-.158-1.046-.276-1.105-.276-.06.02-.315.079-.572.118Z" fill="url(#c)"/><path d="M42.726 65.494c-3.47 3.864-6.31 7.078-6.349 7.177-.059.138 12.363 11.455 12.639 11.514.158.04 12.757-14.038 12.757-14.255 0-.138-11.594-10.608-12.422-11.2-.296-.216-1.124.632-6.625 6.764Zm6.881-1.676c.967.493 1.519 1.222 1.519 1.952 0 .65-.316 1.084-3.214 4.357-2.958 3.332-3.273 3.628-3.924 3.687-.591.06-.868-.059-1.518-.67-.947-.848-1.045-1.479-.355-2.366 1.084-1.46 5.974-6.842 6.329-6.98.572-.237.67-.237 1.163.02Z" fill="url(#d)"/><path d="M32.691 76.042c-1.853.513-5.048 2.09-6.546 3.214-2.84 2.15-5.127 5.324-5.895 8.203-.415 1.577-.415 4.377.02 6.013.67 2.603 3.114 6.724 4.258 7.197.73.315 1.696.079 2.05-.473.178-.257.434-.966.592-1.578.611-2.326 1.755-3.864 3.214-4.337.513-.158 2.307-.395 3.983-.493 3.53-.237 4.85-.533 6.724-1.519 1.557-.828 3.39-2.681 4.554-4.574l.73-1.183-5.896-5.343c-3.253-2.958-6.033-5.383-6.151-5.442-.139-.04-.868.099-1.637.315Zm-4.83 11.752c1.517.907 2.444 1.065 6.072 1.045 1.873 0 4.003.098 4.732.217 1.183.216 1.262.256.907.512-.73.533-2.405.868-5.816 1.144-4.378.355-5.225.63-7.079 2.386-1.479 1.4-2.07 1.577-2.839.808-.335-.335-.532-.887-.71-1.913-.355-2.129.02-4.16 1.124-6.072l.493-.868 1.203 1.163c.67.651 1.538 1.341 1.912 1.578Z" fill="url(#e)"/><defs><linearGradient id="b" x1="42.941" y1="76.612" x2="42.941" y2="0" gradientUnits="userSpaceOnUse"><stop stop-color="#6947CA"/><stop offset="1" stop-color="#CA47A0"/></linearGradient><linearGradient id="c" x1="77.232" y1="67.16" x2="77.232" y2="11.962" gradientUnits="userSpaceOnUse"><stop stop-color="#6947CA"/><stop offset="1" stop-color="#CA47A0"/></linearGradient><linearGradient id="d" x1="49.075" y1="84.186" x2="49.075" y2="58.701" gradientUnits="userSpaceOnUse"><stop stop-color="#6947CA"/><stop offset="1" stop-color="#CA47A0"/></linearGradient><linearGradient id="e" x1="33.158" y1="100.81" x2="33.158" y2="75.72" gradientUnits="userSpaceOnUse"><stop stop-color="#6947CA"/><stop offset="1" stop-color="#CA47A0"/></linearGradient><radialGradient id="a" cx="0" cy="0" r="1" gradientUnits="userSpaceOnUse" gradientTransform="rotate(88.603 -19.893 60.403) scale(23.6696 39.0823)"><stop stop-color="#CA47A0"/><stop offset=".184" stop-color="#CA47A0" stop-opacity=".441"/><stop offset="1" stop-color="#CA47A0" stop-opacity="0"/></radialGradient></defs></svg>