<svg width="100" height="122" fill="none" xmlns="http://www.w3.org/2000/svg"><path fill-rule="evenodd" clip-rule="evenodd" d="M50.023 121.317C72.654 121.317 91 110.206 91 96.5S72.654 71.683 50.023 71.683c-22.63 0-40.976 11.111-40.976 24.817s18.346 24.817 40.976 24.817Zm0-.371c-22.292 0-40.364-10.945-40.364-24.446 0-13.501 18.072-24.446 40.364-24.446 22.293 0 40.365 10.945 40.365 24.446 0 13.501-18.072 24.446-40.365 24.446ZM82.92 96.5c0 11.156-14.728 20.2-32.897 20.2-18.168 0-32.896-9.044-32.896-20.2 0-11.156 14.728-20.2 32.896-20.2 18.169 0 32.897 9.044 32.897 20.2Zm-64.85 0c0 10.836 14.306 19.621 31.953 19.621 17.648 0 31.954-8.785 31.954-19.621 0-10.836-14.306-19.621-31.954-19.621-17.647 0-31.954 8.785-31.954 19.62Zm56.77 0c0 8.606-11.111 15.583-24.817 15.583S25.206 105.106 25.206 96.5s11.111-15.583 24.817-15.583S74.84 87.894 74.84 96.5Zm-47.804 0c0 7.972 10.291 14.434 22.987 14.434 12.696 0 22.987-6.462 22.987-14.434 0-7.972-10.291-14.434-22.987-14.434-12.696 0-22.987 6.462-22.987 14.434Zm42.032 0c0 6.694-8.527 12.12-19.045 12.12-10.519 0-19.046-5.426-19.046-12.12 0-6.694 8.527-12.12 19.046-12.12 10.518 0 19.045 5.426 19.045 12.12Zm-35.845 0c0 5.904 7.521 10.691 16.8 10.691 9.278 0 16.8-4.787 16.8-10.691 0-5.904-7.522-10.691-16.8-10.691-9.279 0-16.8 4.787-16.8 10.69Zm16.8 7.503c6.694 0 12.12-3.359 12.12-7.503s-5.426-7.503-12.12-7.503c-6.693 0-12.12 3.36-12.12 7.503 0 4.144 5.427 7.503 12.12 7.503Zm0-1.59c-5.275 0-9.552-2.647-9.552-5.913 0-3.266 4.277-5.913 9.552-5.913 5.276 0 9.552 2.647 9.552 5.913 0 3.266-4.276 5.913-9.552 5.913Z" fill="url(#a)" fill-opacity=".12"/><path d="M45.659.41a2.8 2.8 0 0 0-1.134 1.153c-.37.723-.39 1.134-.39 7.035v6.253H40.03c-4.514 0-4.788.059-5.726 1.173-.625.742-.84 1.72-.547 2.58.156.449 2.404 2.833 7.602 8.011 7.973 7.953 7.914 7.914 9.458 7.406.45-.156 2.833-2.403 8.012-7.601 6.37-6.37 7.367-7.465 7.484-8.09.234-1.27-.489-2.58-1.798-3.264-.274-.136-1.876-.215-4.534-.215H55.86V8.598c0-5.901-.02-6.312-.39-7.035C54.764.176 54.12 0 49.957 0c-3.166.02-3.654.059-4.3.41Z" fill="url(#b)"/><path d="M24.845 31.832c-5.393 1.779-9.849 3.303-9.907 3.362-.059.058 7.816 2.716 17.49 5.92l17.606 5.824L67.6 41.115c9.673-3.205 17.51-5.882 17.431-5.96-.098-.079-4.592-1.603-10.025-3.381L65.14 28.53l-4.983 4.983c-4.397 4.377-5.159 5.042-6.292 5.57-2.6 1.23-5.14 1.23-7.738 0-1.153-.528-1.896-1.193-6.293-5.59-2.755-2.716-5.041-4.963-5.08-4.943-.059.02-4.514 1.485-9.908 3.282Z" fill="url(#c)"/><path d="M5.442 43.772C2.922 45.922.655 47.954.42 48.286c-.782 1.094-.43 2.873.704 3.674.723.508 33.982 11.549 34.763 11.549 1.524 0 1.798-.293 5.745-6.214 2.033-3.049 3.635-5.628 3.537-5.706C45.052 51.47 12.438 40.587 10.425 40c-.313-.098-1.407.742-4.983 3.771Z" fill="url(#d)"/><path d="M72.332 45.687c-9.595 3.205-17.49 5.863-17.548 5.94-.078.06 1.544 2.62 3.576 5.668 3.947 5.92 4.22 6.214 5.726 6.214.8 0 34.08-11.041 34.783-11.55 1.016-.722 1.446-2.364.88-3.458-.235-.469-9.459-8.5-9.83-8.578-.098 0-7.992 2.579-17.587 5.764Z" fill="url(#e)"/><path d="M44.837 63.04c-1.172 1.759-2.501 3.556-2.95 3.967-1.896 1.739-3.948 2.481-6.527 2.305-1.524-.097-2.756-.468-12.526-3.732-5.96-1.993-10.904-3.634-10.982-3.634-.098 0-.157 5.412-.157 12.017 0 11.666.02 12.057.391 12.8.215.43.665.918 1.016 1.094.352.176 8.11 2.99 17.255 6.253l16.61 5.902.059-10.044c.02-5.53.02-14.559 0-20.089l-.059-10.044-2.13 3.205Z" fill="url(#f)"/><path d="M52.926 79.865v20.166l1.622-.547c4.924-1.7 31.07-11.06 31.93-11.451.782-.352 1.094-.645 1.407-1.25.41-.763.41-1.056.41-12.82 0-6.605-.058-12.017-.156-12.017-.078 0-5.022 1.64-10.982 3.634-9.77 3.264-11.002 3.635-12.526 3.733-2.54.156-4.573-.548-6.488-2.267-.43-.391-1.778-2.189-3.01-4.026l-2.207-3.322v20.167Z" fill="url(#g)"/><defs><linearGradient id="b" x1="50.354" y1="27.822" x2="50.354" y2="-13.315" gradientUnits="userSpaceOnUse"><stop stop-color="#3467FC"/><stop offset="1" stop-color="#BC34FC"/></linearGradient><linearGradient id="c" x1="50.757" y1="43.501" x2="50.757" y2="21.366" gradientUnits="userSpaceOnUse"><stop stop-color="#3467FC"/><stop offset="1" stop-color="#BC34FC"/></linearGradient><linearGradient id="d" x1="23.084" y1="59.118" x2="23.084" y2="30.841" gradientUnits="userSpaceOnUse"><stop stop-color="#3467FC"/><stop offset="1" stop-color="#BC34FC"/></linearGradient><linearGradient id="e" x1="77.889" y1="59.105" x2="77.889" y2="30.742" gradientUnits="userSpaceOnUse"><stop stop-color="#3467FC"/><stop offset="1" stop-color="#BC34FC"/></linearGradient><linearGradient id="f" x1="29.757" y1="92.51" x2="29.757" y2="44.198" gradientUnits="userSpaceOnUse"><stop stop-color="#3467FC"/><stop offset="1" stop-color="#BC34FC"/></linearGradient><linearGradient id="g" x1="71" y1="92.5" x2="71" y2="44" gradientUnits="userSpaceOnUse"><stop stop-color="#3467FC"/><stop offset="1" stop-color="#BC34FC"/></linearGradient><radialGradient id="a" cx="0" cy="0" r="1" gradientUnits="userSpaceOnUse" gradientTransform="rotate(88.603 -24.43 73.88) scale(23.6696 39.0823)"><stop stop-color="#9DBFFF"/><stop offset=".184" stop-color="#9DBFFF" stop-opacity=".22"/><stop offset="1" stop-color="#9DBFFF" stop-opacity="0"/></radialGradient></defs></svg>