<svg width="100" height="125" fill="none" xmlns="http://www.w3.org/2000/svg"><path fill-rule="evenodd" clip-rule="evenodd" d="M49.977 124.634c22.63 0 40.976-11.111 40.976-24.817S72.607 75 49.977 75C27.346 75 9 86.11 9 99.817c0 13.706 18.346 24.817 40.977 24.817Zm0-.371c-22.293 0-40.365-10.945-40.365-24.446 0-13.501 18.072-24.446 40.365-24.446 22.292 0 40.364 10.945 40.364 24.446 0 13.501-18.072 24.446-40.364 24.446Zm32.896-24.446c0 11.156-14.728 20.199-32.897 20.199-18.168 0-32.896-9.043-32.896-20.2 0-11.155 14.728-20.199 32.896-20.199 18.169 0 32.897 9.044 32.897 20.2Zm-64.85 0c0 10.836 14.306 19.621 31.953 19.621 17.648 0 31.954-8.785 31.954-19.621 0-10.836-14.306-19.621-31.954-19.621-17.647 0-31.954 8.785-31.954 19.62Zm56.77 0c0 8.606-11.11 15.582-24.817 15.582-13.706 0-24.817-6.976-24.817-15.582 0-8.606 11.111-15.583 24.817-15.583s24.817 6.977 24.817 15.583Zm-47.804 0c0 7.971 10.292 14.434 22.987 14.434 12.696 0 22.987-6.463 22.987-14.434 0-7.972-10.291-14.434-22.987-14.434-12.695 0-22.987 6.462-22.987 14.434Zm42.032 0c0 6.693-8.527 12.12-19.045 12.12-10.519 0-19.046-5.427-19.046-12.12 0-6.694 8.527-12.12 19.046-12.12 10.518 0 19.045 5.426 19.045 12.12Zm-35.845 0c0 5.904 7.521 10.691 16.8 10.691 9.278 0 16.8-4.787 16.8-10.691 0-5.905-7.522-10.691-16.8-10.691-9.279 0-16.8 4.786-16.8 10.69Zm16.8 7.503c6.694 0 12.12-3.36 12.12-7.503 0-4.144-5.426-7.503-12.12-7.503-6.693 0-12.12 3.36-12.12 7.503 0 4.143 5.427 7.503 12.12 7.503Zm0-1.59c-5.275 0-9.551-2.647-9.551-5.913 0-3.266 4.276-5.913 9.552-5.913 5.275 0 9.552 2.647 9.552 5.913 0 3.266-4.277 5.913-9.553 5.913Z" fill="url(#a)" fill-opacity=".12"/><path d="M24.712 14.798C10.065 23.566.1 29.661.236 29.746c.136.086 11.286 6.758 24.767 14.82 13.501 8.062 24.613 14.67 24.73 14.67.116 0 11.227-6.608 24.728-14.67a31349.609 31349.609 0 0 0 24.768-14.82C99.48 29.596 50.237 0 49.713 0c-.136 0-11.403 6.672-25.001 14.798Z" fill="url(#b)"/><path d="M4.7 47.431C2.233 48.928.193 50.19.193 50.254c0 .064 11.15 6.779 24.768 14.948L49.729 80l24.767-14.798c13.618-8.169 24.768-14.884 24.768-14.948 0-.15-8.78-5.41-9.033-5.41-.117 0-9.227 5.389-20.28 11.996-11.034 6.608-20.145 12.02-20.222 12.02-.078 0-9.053-5.325-19.931-11.826A99944.76 99944.76 0 0 1 9.615 44.951c-.33-.193-1.088.192-4.915 2.48Z" fill="url(#c)"/><path d="M7.187 66.592c-1.01.62-3.05 1.86-4.506 2.737L0 70.912l24.806 14.84c22.437 13.43 24.826 14.799 25.293 14.607.466-.193 46.951-27.95 48.622-29.02l.7-.449-4.275-2.566c-2.37-1.411-4.448-2.651-4.623-2.737-.252-.15-5.517 2.908-20.552 11.911L49.729 89.602 29.527 77.52C18.416 70.869 9.266 65.437 9.169 65.459c-.078 0-.971.513-1.982 1.133Z" fill="url(#d)"/><defs><linearGradient id="b" x1="49.732" y1="59.236" x2="50" y2="-11" gradientUnits="userSpaceOnUse"><stop offset=".13" stop-color="#00A6DA"/><stop offset=".708" stop-color="#02FCB1"/></linearGradient><linearGradient id="c" x1="49.729" y1="80" x2="49.823" y2="38.315" gradientUnits="userSpaceOnUse"><stop offset=".13" stop-color="#00A6DA"/><stop offset=".708" stop-color="#02FCB1"/></linearGradient><linearGradient id="d" x1="49.71" y1="100.374" x2="49.803" y2="58.974" gradientUnits="userSpaceOnUse"><stop offset=".13" stop-color="#00A6DA"/><stop offset=".708" stop-color="#02FCB1"/></linearGradient><radialGradient id="a" cx="0" cy="0" r="1" gradientUnits="userSpaceOnUse" gradientTransform="matrix(0 29.5 -48.7093 0 50 94)"><stop stop-color="#02FCB1"/><stop offset=".184" stop-color="#02FCB1" stop-opacity=".22"/><stop offset="1" stop-color="#02FCB1" stop-opacity="0"/></radialGradient></defs></svg>