<svg width="82" height="50" fill="none" xmlns="http://www.w3.org/2000/svg"><path fill-rule="evenodd" clip-rule="evenodd" d="M40.977 49.634c22.63 0 40.976-11.111 40.976-24.817S63.607 0 40.977 0C18.346 0 0 11.11 0 24.817c0 13.706 18.346 24.817 40.977 24.817Zm0-.371C18.684 49.263.612 38.318.612 24.817.612 11.316 18.684.37 40.977.37 63.269.37 81.34 11.316 81.34 24.817c0 13.5-18.072 24.446-40.364 24.446Zm32.896-24.446c0 11.156-14.728 20.2-32.897 20.2-18.168 0-32.896-9.044-32.896-20.2 0-11.156 14.728-20.2 32.896-20.2 18.169 0 32.897 9.044 32.897 20.2Zm-64.85 0c0 10.836 14.306 19.62 31.953 19.62 17.648 0 31.954-8.784 31.954-19.62 0-10.837-14.306-19.621-31.954-19.621-17.647 0-31.954 8.784-31.954 19.62Zm56.77 0c0 8.606-11.11 15.583-24.817 15.583-13.706 0-24.817-6.977-24.817-15.583S27.27 9.234 40.976 9.234s24.817 6.977 24.817 15.583Zm-47.804 0c0 7.971 10.292 14.434 22.987 14.434 12.696 0 22.988-6.462 22.988-14.434 0-7.972-10.292-14.434-22.988-14.434-12.695 0-22.987 6.462-22.987 14.434Zm42.032 0c0 6.693-8.527 12.12-19.045 12.12-10.519 0-19.046-5.427-19.046-12.12 0-6.694 8.527-12.12 19.046-12.12 10.518 0 19.045 5.426 19.045 12.12Zm-35.845 0c0 5.904 7.521 10.69 16.8 10.69 9.278 0 16.8-4.786 16.8-10.69 0-5.905-7.522-10.691-16.8-10.691-9.279 0-16.8 4.786-16.8 10.69Zm16.8 7.502c6.694 0 12.12-3.359 12.12-7.502 0-4.144-5.426-7.503-12.12-7.503-6.693 0-12.12 3.36-12.12 7.503 0 4.143 5.427 7.502 12.12 7.502Zm0-1.59c-5.275 0-9.552-2.646-9.552-5.912s4.277-5.913 9.553-5.913c5.275 0 9.552 2.647 9.552 5.913 0 3.265-4.277 5.913-9.553 5.913Z" fill="url(#a)" fill-opacity=".12"/><defs><radialGradient id="a" cx="0" cy="0" r="1" gradientUnits="userSpaceOnUse" gradientTransform="matrix(0 29.5 -48.7093 0 41 19)"><stop stop-color="#02FCB1"/><stop offset=".184" stop-color="#02FCB1" stop-opacity=".22"/><stop offset="1" stop-color="#02FCB1" stop-opacity="0"/></radialGradient></defs></svg>