<svg width="402" height="396" fill="none" xmlns="http://www.w3.org/2000/svg"><path opacity=".1" d="M348.718 197.691c0 80.513-66.258 145.783-147.992 145.783-81.733 0-147.992-65.27-147.992-145.783 0-80.514 66.259-145.784 147.992-145.784 81.734 0 147.992 65.27 147.992 145.784Zm-288.285 0c0 76.325 62.811 138.199 140.293 138.199S341.02 274.016 341.02 197.691c0-76.326-62.812-138.2-140.294-138.2-77.482 0-140.293 61.874-140.293 138.2Z" fill="url(#a)"/><path opacity=".1" d="M374.119 197.691c0 94.542-77.631 171.184-173.393 171.184-95.763 0-173.394-76.642-173.394-171.184 0-94.543 77.631-171.185 173.394-171.185 95.762 0 173.393 76.642 173.393 171.185Zm-337.767 0c0 89.624 73.593 162.279 164.374 162.279 90.781 0 164.373-72.655 164.373-162.279 0-89.625-73.592-162.28-164.373-162.28-90.781 0-164.374 72.655-164.374 162.28Z" fill="url(#b)" fill-opacity=".4"/><path opacity=".1" d="M401.176 197.691c0 109.181-89.622 197.691-200.176 197.691C90.446 395.382.824 306.872.824 197.691.824 88.509 90.446 0 201 0c110.554 0 200.176 88.51 200.176 197.691Zm-389.939 0c0 103.502 84.96 187.407 189.763 187.407 104.803 0 189.762-83.905 189.762-187.407 0-103.502-84.959-187.407-189.762-187.407S11.237 94.189 11.237 197.69Z" fill="url(#c)" fill-opacity=".2"/><path opacity=".2" d="M324.421 197.691c0 68.315-55.256 123.695-123.418 123.695-68.163 0-123.419-55.38-123.419-123.695S132.84 73.996 201.003 73.996c68.162 0 123.418 55.38 123.418 123.695Zm-240.417 0c0 64.761 52.382 117.26 116.999 117.26 64.616 0 116.998-52.499 116.998-117.26s-52.382-117.26-116.998-117.26c-64.617 0-116.999 52.499-116.999 117.26Z" fill="url(#d)"/><path opacity=".2" d="M302.92 197.47c0 56.608-45.631 102.499-101.92 102.499S99.08 254.078 99.08 197.47c0-56.609 45.631-102.5 101.92-102.5s101.92 45.891 101.92 102.5Zm-191.229 0c0 49.604 39.985 89.816 89.309 89.816s89.309-40.212 89.309-89.816c0-49.605-39.985-89.817-89.309-89.817s-89.309 40.212-89.309 89.817Z" fill="url(#e)"/><path opacity=".2" d="M275.122 197.47c0 41.257-33.186 74.702-74.123 74.702-40.938 0-74.124-33.445-74.124-74.702s33.186-74.703 74.124-74.703c40.937 0 74.123 33.446 74.123 74.703Zm-131.746 0c0 32.072 25.798 58.073 57.623 58.073 31.824 0 57.622-26.001 57.622-58.073 0-32.073-25.798-58.073-57.622-58.073-31.825 0-57.623 26-57.623 58.073Z" fill="url(#f)"/><ellipse opacity=".2" cx="200.999" cy="197.47" rx="37.062" ry="37.641" fill="url(#g)"/><defs><linearGradient id="a" x1="52.734" y1="247.757" x2="348.75" y2="247.566" gradientUnits="userSpaceOnUse"><stop stop-color="#CB47A0"/><stop offset=".495" stop-color="#6947CB"/><stop offset="1" stop-color="#00FF85"/></linearGradient><linearGradient id="b" x1="27.332" y1="256.481" x2="374.156" y2="256.257" gradientUnits="userSpaceOnUse"><stop stop-color="#CB47A0"/><stop offset=".495" stop-color="#6947CB"/><stop offset="1" stop-color="#00FF85"/></linearGradient><linearGradient id="c" x1=".824" y1="265.584" x2="401.218" y2="265.326" gradientUnits="userSpaceOnUse"><stop stop-color="#CB47A0"/><stop offset=".495" stop-color="#6947CB"/><stop offset="1" stop-color="#00FF85"/></linearGradient><linearGradient id="d" x1="77.584" y1="240.172" x2="324.448" y2="240.015" gradientUnits="userSpaceOnUse"><stop stop-color="#CB47A0"/><stop offset=".495" stop-color="#6947CB"/><stop offset="1" stop-color="#00FF85"/></linearGradient><linearGradient id="e" x1="99.08" y1="232.671" x2="302.941" y2="232.542" gradientUnits="userSpaceOnUse"><stop stop-color="#CB47A0"/><stop offset=".495" stop-color="#6947CB"/><stop offset="1" stop-color="#00FF85"/></linearGradient><linearGradient id="f" x1="126.875" y1="223.125" x2="275.138" y2="223.031" gradientUnits="userSpaceOnUse"><stop stop-color="#CB47A0"/><stop offset=".495" stop-color="#6947CB"/><stop offset="1" stop-color="#00FF85"/></linearGradient><linearGradient id="g" x1="163.938" y1="210.397" x2="238.069" y2="210.351" gradientUnits="userSpaceOnUse"><stop stop-color="#CB47A0"/><stop offset=".495" stop-color="#6947CB"/><stop offset="1" stop-color="#00FF85"/></linearGradient></defs></svg>